<svg width="20" height="20" viewBox="0 0 20 20" fill="none" xmlns="http://www.w3.org/2000/svg">
    <g clip-path="url(#clip0_3112_671)">
        <path
            d="M9.88785 6.74715C9.88785 8.48169 8.48169 9.88785 6.74715 9.88785C5.0126 9.88785 3.60645 8.48169 3.60645 6.74715C3.60645 5.0126 5.01252 3.60645 6.74715 3.60645C8.48177 3.60645 9.88785 5.01252 9.88785 6.74715Z"
            fill="#9282FA" />
        <path fill-rule="evenodd" clip-rule="evenodd"
            d="M6.29841 0.689941C6.67009 0.689941 6.97148 0.99125 6.97148 1.36294V1.81165C6.97148 2.18334 6.67009 2.48465 6.29841 2.48465C5.92672 2.48465 5.62541 2.18334 5.62541 1.81165V1.36294C5.62541 0.99125 5.92672 0.689941 6.29841 0.689941ZM2.33295 2.33265C2.59578 2.06982 3.02186 2.06982 3.28469 2.33265L3.47857 2.52653C3.7414 2.78936 3.7414 3.21544 3.47857 3.47827C3.21574 3.7411 2.78966 3.7411 2.52683 3.47827L2.33295 3.28439C2.07011 3.02156 2.07011 2.59548 2.33295 2.33265ZM10.2639 2.33273C10.5267 2.59556 10.5267 3.02172 10.2639 3.28455L10.0699 3.47843C9.80707 3.74126 9.381 3.74126 9.11817 3.47843C8.85533 3.2156 8.85533 2.78944 9.11817 2.52661L9.31204 2.33273C9.57488 2.0699 10.001 2.0699 10.2639 2.33273ZM0.690002 6.29835C0.690002 5.92666 0.991311 5.62535 1.363 5.62535H1.81171C2.1834 5.62535 2.48471 5.92666 2.48471 6.29835C2.48471 6.67003 2.1834 6.97142 1.81171 6.97142H1.363C0.991311 6.97142 0.690002 6.67003 0.690002 6.29835ZM3.47857 9.1185C3.7414 9.38133 3.7414 9.80749 3.47857 10.0703L3.28469 10.2641C3.02186 10.527 2.59578 10.527 2.33295 10.2641C2.07011 10.0013 2.07011 9.57513 2.33295 9.31238L2.52683 9.1185C2.78966 8.85567 3.21574 8.85567 3.47857 9.1185Z"
            fill="#9282FA" />
        <path
            d="M14.1823 19.31C17.0142 19.31 19.31 17.0412 19.31 14.2425C19.31 12.0245 17.868 10.1392 15.8597 9.45262C15.5744 6.92095 13.4018 4.95239 10.7638 4.95239C7.93183 4.95239 5.63608 7.22115 5.63608 10.0198C5.63608 10.6388 5.74841 11.2319 5.95401 11.7802C5.71287 11.7334 5.46373 11.7089 5.20881 11.7089C3.08477 11.7089 1.36298 13.4105 1.36298 15.5094C1.36298 17.6085 3.08477 19.31 5.20873 19.31H14.1823Z"
            fill="#9282FA" fill-opacity="0.4" />
    </g>
    <defs>
        <clipPath id="clip0_3112_671">
            <rect width="20" height="20" fill="white" />
        </clipPath>
    </defs>
</svg>