<svg width="20" height="20" viewBox="0 0 20 20" fill="none" xmlns="http://www.w3.org/2000/svg">
    <g clip-path="url(#clip0_3112_674)">
        <path
            d="M3.28815 16.0624C3.28815 15.7037 3.57893 15.4128 3.93763 15.4128H16.0623C16.421 15.4128 16.7118 15.7037 16.7118 16.0624C16.7118 16.4211 16.421 16.7119 16.0623 16.7119H3.93763C3.57893 16.7119 3.28815 16.4211 3.28815 16.0624Z"
            fill="#9282FA" />
        <path
            d="M4.15417 9.99988C4.15417 11.0199 4.41582 11.9795 4.8753 12.8145H15.1246C15.5842 11.9795 15.8458 11.0199 15.8458 9.99988C15.8458 6.7713 13.2285 4.15405 10 4.15405C6.77143 4.15405 4.15417 6.7713 4.15417 9.99988Z"
            fill="#9282FA" />
        <path fill-rule="evenodd" clip-rule="evenodd"
            d="M5.88629 18.6605C5.88629 18.3018 6.17715 18.011 6.53585 18.011H13.4642C13.8229 18.011 14.1138 18.3018 14.1138 18.6605C14.1138 19.0192 13.8229 19.31 13.4642 19.31H6.53585C6.17715 19.31 5.88629 19.0193 5.88629 18.6605Z"
            fill="#9282FA" fill-opacity="0.4" />
        <path fill-rule="evenodd" clip-rule="evenodd"
            d="M10 0.689941C10.3587 0.689941 10.6496 0.980721 10.6496 1.3395V2.20551C10.6496 2.56421 10.3587 2.85507 10 2.85507C9.6413 2.85507 9.35044 2.56421 9.35044 2.20551V1.3395C9.35044 0.980721 9.6413 0.689941 10 0.689941ZM0.690002 9.99994C0.690002 9.64124 0.980782 9.35038 1.33956 9.35038H2.20557C2.56427 9.35038 2.85513 9.64124 2.85513 9.99994C2.85513 10.3586 2.56427 10.6495 2.20557 10.6495H1.33956C0.980782 10.6495 0.690002 10.3586 0.690002 9.99994ZM17.1449 9.99994C17.1449 9.64124 17.4357 9.35038 17.7944 9.35038H18.6604C19.0192 9.35038 19.31 9.64124 19.31 9.99994C19.31 10.3586 19.0192 10.6495 18.6604 10.6495H17.7944C17.4357 10.6495 17.1449 10.3586 17.1449 9.99994Z"
            fill="#9282FA" fill-opacity="0.4" />
        <path fill-rule="evenodd" clip-rule="evenodd"
            d="M4.87531 12.8145H1.33956C0.980782 12.8145 0.690002 13.1053 0.690002 13.464C0.690002 13.8227 0.980782 14.1136 1.33956 14.1136H18.6604C19.0192 14.1136 19.31 13.8227 19.31 13.464C19.31 13.1053 19.0192 12.8145 18.6604 12.8145H4.87531Z"
            fill="#9282FA" fill-opacity="0.4" />
        <path
            d="M3.41668 3.41656C3.67033 3.16291 4.0816 3.16291 4.33525 3.41656L4.67543 3.75674C4.92908 4.01039 4.92908 4.42166 4.67543 4.67531C4.42178 4.92896 4.01051 4.92896 3.75686 4.67531L3.41668 4.33513C3.16303 4.08148 3.16303 3.67021 3.41668 3.41656Z"
            fill="#9282FA" />
        <path
            d="M16.5827 3.41656C16.8364 3.67021 16.8364 4.08148 16.5827 4.33513L16.2425 4.67531C15.9889 4.92896 15.5776 4.92896 15.324 4.67531C15.0702 4.42166 15.0702 4.01039 15.324 3.75674L15.6641 3.41656C15.9178 3.16291 16.3291 3.16291 16.5827 3.41656Z"
            fill="#9282FA" />
    </g>
    <defs>
        <clipPath id="clip0_3112_674">
            <rect width="20" height="20" fill="white" />
        </clipPath>
    </defs>
</svg>