<svg width="24" height="24" viewBox="0 0 24 24" fill="none" xmlns="http://www.w3.org/2000/svg">
    <path
        d="M22 7.28336C22 9.92493 19.7611 12.0667 17 12.0667C16.6753 12.0671 16.3516 12.0371 16.0327 11.9772C15.8031 11.9341 15.6883 11.9126 15.6082 11.9248C15.5281 11.937 15.4145 11.9974 15.1874 12.1182C14.545 12.4598 13.7959 12.5805 13.0755 12.4465C13.3493 12.1097 13.5363 11.7056 13.6188 11.2724C13.6688 11.0074 13.545 10.75 13.3594 10.5616C12.5166 9.70577 12 8.55254 12 7.28336C12 4.64178 14.2388 2.5 17 2.5C19.7611 2.5 22 4.64178 22 7.28336Z"
        stroke="white" stroke-width="1.5" stroke-linejoin="round" />
    <path d="M15.4922 7.5H15.5003M18.4922 7.5H18.5003" stroke="white" stroke-width="1.5" stroke-linecap="round" />
    <path
        d="M7.50189 21.5H4.71817C4.39488 21.5 4.07021 21.4545 3.77327 21.3269C2.80666 20.9116 2.31624 20.3632 2.08769 20.0201C1.95764 19.825 1.97617 19.5763 2.11726 19.3889C3.23716 17.9014 5.83846 17.003 7.50665 17.0029C9.17484 17.003 11.7714 17.9014 12.8913 19.3889C13.0324 19.5763 13.0509 19.825 12.9209 20.0201C12.6923 20.3632 12.2019 20.9116 11.2353 21.3269C10.9383 21.4545 10.6137 21.5 10.2904 21.5H7.50189Z"
        stroke="white" stroke-width="1.5" stroke-linecap="round" stroke-linejoin="round" />
    <path
        d="M10.2854 11.789C10.2854 13.3203 9.04129 14.5617 7.50664 14.5617C5.97199 14.5617 4.72791 13.3203 4.72791 11.789C4.72791 10.2577 5.97199 9.01636 7.50664 9.01636C9.04129 9.01636 10.2854 10.2577 10.2854 11.789Z"
        stroke="white" stroke-width="1.5" stroke-linecap="round" stroke-linejoin="round" />
</svg>